<svg xmlns="http://www.w3.org/2000/svg" width="1600" height="1100" viewBox="0 0 1600 1100" fill="none">
  <defs>
    <radialGradient id="glow" cx="50%" cy="18%" r="70%">
      <stop offset="0%" stop-color="#fff" stop-opacity=".96"/>
      <stop offset="48%" stop-color="#fbf5ec" stop-opacity=".72"/>
      <stop offset="100%" stop-color="#f6efe4" stop-opacity=".96"/>
    </radialGradient>
    <linearGradient id="pink" x1="0" y1="0" x2="1" y2="1">
      <stop stop-color="#fff2df"/><stop offset=".55" stop-color="#f3c8bd"/><stop offset="1" stop-color="#f9e5cd"/>
    </linearGradient>
    <linearGradient id="blue" x1="0" y1="0" x2="1" y2="1">
      <stop stop-color="#edf8fb"/><stop offset="1" stop-color="#bfdde6"/>
    </linearGradient>
    <filter id="shadow" x="-30%" y="-30%" width="160%" height="160%">
      <feDropShadow dx="0" dy="18" stdDeviation="18" flood-color="#4b3022" flood-opacity=".14"/>
    </filter>
    <filter id="soft" x="-20%" y="-20%" width="140%" height="140%">
      <feGaussianBlur stdDeviation="1.2"/>
    </filter>
    <pattern id="wallpaper" width="150" height="150" patternUnits="userSpaceOnUse">
      <path d="M32 62c14-18 42-9 40 15-1 21-32 23-40 6-7 15-34 13-35-6-1-22 25-29 35-15Z" fill="#d8b792" opacity=".11"/>
      <circle cx="117" cy="33" r="9" fill="#dfc09d" opacity=".12"/>
      <path d="M117 16l4 9 10 1-8 7 2 10-8-5-9 5 2-10-8-7 10-1 5-9Z" fill="#e4bd67" opacity=".18"/>
      <path d="M86 118c7-10 23-4 22 9-.6 12-18 13-22 4-4 9-20 8-20-4-.5-13 15-17 20-9Z" fill="#bdd8df" opacity=".14"/>
      <path d="M24 130h22v22H24z" fill="#eac5b6" opacity=".12" rx="5"/>
    </pattern>
  </defs>

  <rect width="1600" height="1100" fill="url(#glow)"/>
  <rect width="1600" height="1100" fill="url(#wallpaper)" opacity=".9"/>

  <rect x="280" y="42" width="1040" height="70" rx="35" fill="white" opacity=".78" filter="url(#shadow)"/>
  <text x="800" y="84" text-anchor="middle" font-family="Inter, Arial, sans-serif" font-size="18" letter-spacing="10" font-weight="700" fill="#8c7466" opacity=".72">SOFT GIFTS, TINY SMILES, MAGICAL KEEPSAKES</text>

  <g opacity=".95" filter="url(#shadow)">
    <ellipse cx="154" cy="220" rx="58" ry="78" fill="#f4cabb"/>
    <ellipse cx="236" cy="220" rx="58" ry="78" fill="#cbe5f0"/>
    <path d="M155 298c-12 70-5 138 5 193M235 298c18 73 11 148-3 196" stroke="#c8aa8a" stroke-width="3" opacity=".55"/>
    <path d="M76 326h236v72c0 24-19 43-43 43H119c-24 0-43-19-43-43v-72Z" fill="white" opacity=".82"/>
    <path d="M76 326h59v72H76z" fill="#f5c7bc" opacity=".72"/>
    <path d="M194 326h59v72h-59z" fill="#f7e9bd" opacity=".8"/>
    <rect x="105" y="285" width="178" height="54" rx="27" fill="#fff9eb" stroke="#e8d5b9"/>
    <text x="194" y="318" text-anchor="middle" font-family="Inter, Arial" font-size="13" letter-spacing="2" font-weight="800" fill="#9c806b">MY BABY SHIRE</text>
  </g>

  <g filter="url(#shadow)">
    <circle cx="160" cy="520" r="58" fill="#d79b64"/>
    <circle cx="132" cy="486" r="24" fill="#d79b64"/><circle cx="188" cy="486" r="24" fill="#d79b64"/>
    <circle cx="143" cy="512" r="7" fill="#56392b"/><circle cx="177" cy="512" r="7" fill="#56392b"/>
    <ellipse cx="160" cy="535" rx="26" ry="20" fill="#f2c48b"/><circle cx="160" cy="524" r="8" fill="#56392b"/>
    <path d="M133 572c38 22 58 20 86 0" stroke="#efc1b2" stroke-width="14" stroke-linecap="round"/>
  </g>

  <g filter="url(#shadow)">
    <rect x="96" y="650" width="70" height="70" rx="12" fill="#fff" stroke="#eadac8"/><text x="131" y="695" text-anchor="middle" font-family="Georgia" font-size="32" fill="#8b766b">B</text>
    <rect x="180" y="650" width="70" height="70" rx="12" fill="#fff" stroke="#eadac8"/><text x="215" y="695" text-anchor="middle" font-family="Georgia" font-size="32" fill="#8b766b">A</text>
    <rect x="96" y="735" width="70" height="70" rx="12" fill="#fff" stroke="#eadac8"/><text x="131" y="780" text-anchor="middle" font-family="Georgia" font-size="32" fill="#8b766b">B</text>
    <rect x="180" y="735" width="70" height="70" rx="12" fill="#fff" stroke="#eadac8"/><text x="215" y="780" text-anchor="middle" font-family="Georgia" font-size="32" fill="#8b766b">Y</text>
  </g>

  <g filter="url(#shadow)">
    <ellipse cx="335" cy="706" rx="48" ry="14" fill="#e7d2a5"/>
    <ellipse cx="335" cy="738" rx="38" ry="12" fill="#bad4bd"/>
    <ellipse cx="335" cy="770" rx="29" ry="11" fill="#f0c1b7"/>
    <ellipse cx="335" cy="802" rx="21" ry="10" fill="#f5df9f"/>
  </g>

  <g filter="url(#shadow)">
    <ellipse cx="1380" cy="230" rx="62" ry="116" fill="url(#pink)"/>
    <line x1="1380" y1="346" x2="1338" y2="464" stroke="#b6926c" stroke-width="3" opacity=".55"/>
    <line x1="1380" y1="346" x2="1422" y2="464" stroke="#b6926c" stroke-width="3" opacity=".55"/>
    <path d="M1300 448h160v86c0 22-18 40-40 40h-80c-22 0-40-18-40-40v-86Z" fill="#d5b785" opacity=".82"/>
    <circle cx="1380" cy="505" r="28" fill="#dd9458"/><circle cx="1363" cy="487" r="12" fill="#dd9458"/><circle cx="1397" cy="487" r="12" fill="#dd9458"/>
    <circle cx="1371" cy="502" r="4" fill="#4d3325"/><circle cx="1389" cy="502" r="4" fill="#4d3325"/>
  </g>

  <g filter="url(#shadow)">
    <path d="M1280 725c24-93 198-93 222 0v95h-222v-95Z" fill="#f5d2c8" stroke="#d8b56a" stroke-width="2"/>
    <ellipse cx="1391" cy="727" rx="126" ry="20" fill="#f9e5c5" stroke="#d8b56a" stroke-width="2"/>
    <ellipse cx="1391" cy="774" rx="84" ry="35" fill="#fff5dc" stroke="#d8b56a" stroke-width="2"/>
    <path d="M1340 760l18-20 25 20-20 22-23-22Zm89 0l18-20 25 20-20 22-23-22Z" fill="#b27456" opacity=".9"/>
  </g>

  <g filter="url(#shadow)">
    <rect x="1320" y="850" width="72" height="52" rx="16" fill="#eeac9a"/><circle cx="1355" cy="876" r="12" fill="#d8b464"/>
    <rect x="1405" y="835" width="90" height="66" rx="16" fill="#e5c997"/>
    <rect x="1510" y="840" width="92" height="62" rx="16" fill="#bdd9df"/>
    <rect x="1512" y="912" width="106" height="108" rx="14" fill="#fff2e5"/><rect x="1555" y="912" width="18" height="108" fill="#efb6aa"/><rect x="1512" y="960" width="106" height="18" fill="#efb6aa"/>
  </g>

  <g opacity=".92">
    <path d="M360 985c22-30 69-15 67 25-2 35-56 39-67 10-11 29-57 25-60-9-3-39 39-57 60-26Z" fill="#fff" filter="url(#shadow)"/>
    <path d="M1240 905c18-24 55-12 54 20-1 28-45 31-54 8-9 23-45 20-47-7-2-31 31-45 47-21Z" fill="#fff" filter="url(#shadow)"/>
    <path d="M575 315c13-20 43-10 42 16-1 22-34 25-42 6-8 19-38 16-40-7-2-26 27-36 40-15Z" fill="#fff" filter="url(#shadow)"/>
    <path d="M1055 278c18-27 59-15 58 21-1 30-47 34-58 8-10 25-51 22-53-9-2-36 34-50 53-20Z" fill="#fff" filter="url(#shadow)"/>
  </g>

  <g fill="#d8b464" opacity=".9">
    <path d="M292 336l10 22 24 3-17 16 4 24-21-12-21 12 4-24-17-16 24-3 10-22Z"/>
    <path d="M1410 605l9 18 20 3-14 14 3 20-18-10-18 10 3-20-14-14 20-3 9-18Z"/>
    <path d="M1188 340l8 17 19 2-14 13 4 19-17-9-17 9 3-19-14-13 19-2 9-17Z"/>
    <path d="M365 235l7 14 16 2-12 11 3 16-14-8-14 8 3-16-12-11 16-2 7-14Z"/>
  </g>
</svg>
